<?xml version="1.0" encoding="UTF-8" standalone="no"?>
<!DOCTYPE svg PUBLIC "-//W3C//DTD SVG 1.1//EN"
 "http://www.w3.org/Graphics/SVG/1.1/DTD/svg11.dtd">
<!-- Generated by graphviz version 2.40.1 (20161225.0304)
 -->
<!-- Title: dependencies Pages: 1 -->
<svg width="1014pt" height="284pt"
 viewBox="0.00 0.00 1014.00 284.00" xmlns="http://www.w3.org/2000/svg" xmlns:xlink="http://www.w3.org/1999/xlink">
<g id="graph0" class="graph" transform="scale(1 1) rotate(0) translate(4 280)">
<title>dependencies</title>
<polygon fill="#ffffff" stroke="transparent" points="-4,4 -4,-280 1010,-280 1010,4 -4,4"/>
<text text-anchor="start" x="482.0091" y="-42.4" font-family="sans-serif" font-weight="bold" font-size="14.00" fill="#000000">Legend</text>
<polygon fill="#ffffb3" stroke="transparent" points="269,-10 269,-30 289,-30 289,-10 269,-10"/>
<text text-anchor="start" x="292.629" y="-15.4" font-family="sans-serif" font-size="14.00" fill="#000000"> &#160;Declarations</text>
<polygon fill="#8dd3c7" stroke="transparent" points="382,-10 382,-30 402,-30 402,-10 382,-10"/>
<text text-anchor="start" x="405.7251" y="-15.4" font-family="sans-serif" font-size="14.00" fill="#000000"> &#160;Module</text>
<polygon fill="#80b1d3" stroke="transparent" points="468,-10 468,-30 488,-30 488,-10 468,-10"/>
<text text-anchor="start" x="491.7812" y="-15.4" font-family="sans-serif" font-size="14.00" fill="#000000"> &#160;Bootstrap</text>
<polygon fill="#fdb462" stroke="transparent" points="565,-10 565,-30 585,-30 585,-10 565,-10"/>
<text text-anchor="start" x="588.6732" y="-15.4" font-family="sans-serif" font-size="14.00" fill="#000000"> &#160;Providers</text>
<polygon fill="#fb8072" stroke="transparent" points="661,-10 661,-30 681,-30 681,-10 661,-10"/>
<text text-anchor="start" x="684.7258" y="-15.4" font-family="sans-serif" font-size="14.00" fill="#000000"> &#160;Exports</text>
<g id="clust1" class="cluster">
<title>cluster_CoreModule</title>
<polygon fill="none" stroke="#000000" stroke-dasharray="1,5" points="8,-70 8,-268 998,-268 998,-70 8,-70"/>
</g>
<g id="clust2" class="cluster">
<title>cluster_CoreModule_declarations</title>
<polygon fill="none" stroke="#000000" points="289,-78 289,-130 685,-130 685,-78 289,-78"/>
</g>
<g id="clust7" class="cluster">
<title>cluster_CoreModule_exports</title>
<polygon fill="none" stroke="#000000" points="16,-208 16,-260 990,-260 990,-208 16,-208"/>
</g>
<!-- FooterComponent -->
<g id="node1" class="node">
<title>FooterComponent</title>
<polygon fill="#ffffb3" stroke="#000000" points="676.8809,-122 559.1191,-122 559.1191,-86 676.8809,-86 676.8809,-122"/>
<text text-anchor="middle" x="618" y="-99.8" font-family="Times,serif" font-size="14.00" fill="#000000">FooterComponent</text>
</g>
<!-- CoreModule -->
<g id="node4" class="node">
<title>CoreModule</title>
<polygon fill="#8dd3c7" stroke="#000000" points="523.2619,-187 520.2619,-191 499.2619,-191 496.2619,-187 436.7381,-187 436.7381,-151 523.2619,-151 523.2619,-187"/>
<text text-anchor="middle" x="480" y="-164.8" font-family="Times,serif" font-size="14.00" fill="#000000">CoreModule</text>
</g>
<!-- FooterComponent&#45;&gt;CoreModule -->
<g id="edge1" class="edge">
<title>FooterComponent&#45;&gt;CoreModule</title>
<path fill="none" stroke="#000000" d="M573.6531,-122.0091C573.6531,-138.0494 573.6531,-159 573.6531,-159 573.6531,-159 533.2627,-159 533.2627,-159"/>
<polygon fill="#000000" stroke="#000000" points="533.2628,-155.5001 523.2627,-159 533.2627,-162.5001 533.2628,-155.5001"/>
</g>
<!-- HeaderComponent -->
<g id="node2" class="node">
<title>HeaderComponent</title>
<polygon fill="#ffffb3" stroke="#000000" points="540.7437,-122 419.2563,-122 419.2563,-86 540.7437,-86 540.7437,-122"/>
<text text-anchor="middle" x="480" y="-99.8" font-family="Times,serif" font-size="14.00" fill="#000000">HeaderComponent</text>
</g>
<!-- HeaderComponent&#45;&gt;CoreModule -->
<g id="edge2" class="edge">
<title>HeaderComponent&#45;&gt;CoreModule</title>
<path fill="none" stroke="#000000" d="M480,-122.1061C480,-122.1061 480,-140.991 480,-140.991"/>
<polygon fill="#000000" stroke="#000000" points="476.5001,-140.9909 480,-150.991 483.5001,-140.991 476.5001,-140.9909"/>
</g>
<!-- NavComponent -->
<g id="node3" class="node">
<title>NavComponent</title>
<polygon fill="#ffffb3" stroke="#000000" points="401.1542,-122 296.8458,-122 296.8458,-86 401.1542,-86 401.1542,-122"/>
<text text-anchor="middle" x="349" y="-99.8" font-family="Times,serif" font-size="14.00" fill="#000000">NavComponent</text>
</g>
<!-- NavComponent&#45;&gt;CoreModule -->
<g id="edge3" class="edge">
<title>NavComponent&#45;&gt;CoreModule</title>
<path fill="none" stroke="#000000" d="M383.625,-122.0091C383.625,-138.0494 383.625,-159 383.625,-159 383.625,-159 426.6054,-159 426.6054,-159"/>
<polygon fill="#000000" stroke="#000000" points="426.6054,-162.5001 436.6054,-159 426.6053,-155.5001 426.6054,-162.5001"/>
</g>
<!-- FooterComponent  -->
<g id="node5" class="node">
<title>FooterComponent </title>
<polygon fill="#fb8072" stroke="#000000" points="981.8814,-252 860.1186,-252 860.1186,-216 981.8814,-216 981.8814,-252"/>
<text text-anchor="middle" x="921" y="-229.8" font-family="Times,serif" font-size="14.00" fill="#000000">FooterComponent </text>
</g>
<!-- CoreModule&#45;&gt;FooterComponent  -->
<g id="edge4" class="edge">
<title>CoreModule&#45;&gt;FooterComponent </title>
<path fill="none" stroke="#000000" stroke-dasharray="5,2" d="M523.4917,-166C634.7493,-166 921,-166 921,-166 921,-166 921,-205.7772 921,-205.7772"/>
<polygon fill="#000000" stroke="#000000" points="917.5001,-205.7772 921,-215.7772 924.5001,-205.7773 917.5001,-205.7772"/>
</g>
<!-- HeaderComponent  -->
<g id="node6" class="node">
<title>HeaderComponent </title>
<polygon fill="#fb8072" stroke="#000000" points="842.7436,-252 717.2564,-252 717.2564,-216 842.7436,-216 842.7436,-252"/>
<text text-anchor="middle" x="780" y="-229.8" font-family="Times,serif" font-size="14.00" fill="#000000">HeaderComponent </text>
</g>
<!-- CoreModule&#45;&gt;HeaderComponent  -->
<g id="edge5" class="edge">
<title>CoreModule&#45;&gt;HeaderComponent </title>
<path fill="none" stroke="#000000" stroke-dasharray="5,2" d="M523.3022,-173C606.3814,-173 780,-173 780,-173 780,-173 780,-205.698 780,-205.698"/>
<polygon fill="#000000" stroke="#000000" points="776.5001,-205.698 780,-215.698 783.5001,-205.698 776.5001,-205.698"/>
</g>
<!-- IconsModule  -->
<g id="node7" class="node">
<title>IconsModule </title>
<polygon fill="#fb8072" stroke="#000000" points="699.8703,-252 606.1297,-252 606.1297,-216 699.8703,-216 699.8703,-252"/>
<text text-anchor="middle" x="653" y="-229.8" font-family="Times,serif" font-size="14.00" fill="#000000">IconsModule </text>
</g>
<!-- CoreModule&#45;&gt;IconsModule  -->
<g id="edge6" class="edge">
<title>CoreModule&#45;&gt;IconsModule </title>
<path fill="none" stroke="#000000" stroke-dasharray="5,2" d="M523.3133,-180C571.1894,-180 641.6278,-180 641.6278,-180 641.6278,-180 641.6278,-205.7181 641.6278,-205.7181"/>
<polygon fill="#000000" stroke="#000000" points="638.1279,-205.718 641.6278,-215.7181 645.1279,-205.7181 638.1279,-205.718"/>
</g>
<!-- LoginModule  -->
<g id="node8" class="node">
<title>LoginModule </title>
<polygon fill="#fb8072" stroke="#000000" points="588.4943,-252 491.5057,-252 491.5057,-216 588.4943,-216 588.4943,-252"/>
<text text-anchor="middle" x="540" y="-229.8" font-family="Times,serif" font-size="14.00" fill="#000000">LoginModule </text>
</g>
<!-- CoreModule&#45;&gt;LoginModule  -->
<g id="edge7" class="edge">
<title>CoreModule&#45;&gt;LoginModule </title>
<path fill="none" stroke="#000000" stroke-dasharray="5,2" d="M507.5672,-187.1061C507.5672,-187.1061 507.5672,-205.991 507.5672,-205.991"/>
<polygon fill="#000000" stroke="#000000" points="504.0672,-205.9909 507.5672,-215.991 511.0672,-205.991 504.0672,-205.9909"/>
</g>
<!-- NavComponent  -->
<g id="node9" class="node">
<title>NavComponent </title>
<polygon fill="#fb8072" stroke="#000000" points="474.1537,-252 365.8463,-252 365.8463,-216 474.1537,-216 474.1537,-252"/>
<text text-anchor="middle" x="420" y="-229.8" font-family="Times,serif" font-size="14.00" fill="#000000">NavComponent </text>
</g>
<!-- CoreModule&#45;&gt;NavComponent  -->
<g id="edge8" class="edge">
<title>CoreModule&#45;&gt;NavComponent </title>
<path fill="none" stroke="#000000" stroke-dasharray="5,2" d="M455.348,-187.1061C455.348,-187.1061 455.348,-205.991 455.348,-205.991"/>
<polygon fill="#000000" stroke="#000000" points="451.8481,-205.9909 455.348,-215.991 458.8481,-205.991 451.8481,-205.9909"/>
</g>
<!-- TemplatesModule  -->
<g id="node10" class="node">
<title>TemplatesModule </title>
<polygon fill="#fb8072" stroke="#000000" points="347.8631,-252 226.1369,-252 226.1369,-216 347.8631,-216 347.8631,-252"/>
<text text-anchor="middle" x="287" y="-229.8" font-family="Times,serif" font-size="14.00" fill="#000000">TemplatesModule </text>
</g>
<!-- CoreModule&#45;&gt;TemplatesModule  -->
<g id="edge9" class="edge">
<title>CoreModule&#45;&gt;TemplatesModule </title>
<path fill="none" stroke="#000000" stroke-dasharray="5,2" d="M436.4565,-180C389.7419,-180 322.1773,-180 322.1773,-180 322.1773,-180 322.1773,-205.7181 322.1773,-205.7181"/>
<polygon fill="#000000" stroke="#000000" points="318.6773,-205.718 322.1773,-215.7181 325.6773,-205.7181 318.6773,-205.718"/>
</g>
<!-- TextModule  -->
<g id="node11" class="node">
<title>TextModule </title>
<polygon fill="#fb8072" stroke="#000000" points="208.2081,-252 119.7919,-252 119.7919,-216 208.2081,-216 208.2081,-252"/>
<text text-anchor="middle" x="164" y="-229.8" font-family="Times,serif" font-size="14.00" fill="#000000">TextModule </text>
</g>
<!-- CoreModule&#45;&gt;TextModule  -->
<g id="edge10" class="edge">
<title>CoreModule&#45;&gt;TextModule </title>
<path fill="none" stroke="#000000" stroke-dasharray="5,2" d="M436.7241,-173C350.1797,-173 164,-173 164,-173 164,-173 164,-205.698 164,-205.698"/>
<polygon fill="#000000" stroke="#000000" points="160.5001,-205.698 164,-215.698 167.5001,-205.698 160.5001,-205.698"/>
</g>
<!-- UiModule  -->
<g id="node12" class="node">
<title>UiModule </title>
<polygon fill="#fb8072" stroke="#000000" points="101.547,-252 24.453,-252 24.453,-216 101.547,-216 101.547,-252"/>
<text text-anchor="middle" x="63" y="-229.8" font-family="Times,serif" font-size="14.00" fill="#000000">UiModule </text>
</g>
<!-- CoreModule&#45;&gt;UiModule  -->
<g id="edge11" class="edge">
<title>CoreModule&#45;&gt;UiModule </title>
<path fill="none" stroke="#000000" stroke-dasharray="5,2" d="M436.5538,-166C329.7497,-166 63,-166 63,-166 63,-166 63,-205.7772 63,-205.7772"/>
<polygon fill="#000000" stroke="#000000" points="59.5001,-205.7772 63,-215.7772 66.5001,-205.7773 59.5001,-205.7772"/>
</g>
</g>
</svg>
