<?xml version="1.0" encoding="UTF-8" standalone="no"?>
<!DOCTYPE svg PUBLIC "-//W3C//DTD SVG 1.1//EN"
 "http://www.w3.org/Graphics/SVG/1.1/DTD/svg11.dtd">
<!-- Generated by graphviz version 2.40.1 (20161225.0304)
 -->
<!-- Title: dependencies Pages: 1 -->
<svg width="562pt" height="284pt"
 viewBox="0.00 0.00 562.00 284.00" xmlns="http://www.w3.org/2000/svg" xmlns:xlink="http://www.w3.org/1999/xlink">
<g id="graph0" class="graph" transform="scale(1 1) rotate(0) translate(4 280)">
<title>dependencies</title>
<polygon fill="#ffffff" stroke="transparent" points="-4,4 -4,-280 558,-280 558,4 -4,4"/>
<text text-anchor="start" x="256.0091" y="-42.4" font-family="sans-serif" font-weight="bold" font-size="14.00" fill="#000000">Legend</text>
<polygon fill="#ffffb3" stroke="transparent" points="43,-10 43,-30 63,-30 63,-10 43,-10"/>
<text text-anchor="start" x="66.629" y="-15.4" font-family="sans-serif" font-size="14.00" fill="#000000"> &#160;Declarations</text>
<polygon fill="#8dd3c7" stroke="transparent" points="156,-10 156,-30 176,-30 176,-10 156,-10"/>
<text text-anchor="start" x="179.7251" y="-15.4" font-family="sans-serif" font-size="14.00" fill="#000000"> &#160;Module</text>
<polygon fill="#80b1d3" stroke="transparent" points="242,-10 242,-30 262,-30 262,-10 242,-10"/>
<text text-anchor="start" x="265.7812" y="-15.4" font-family="sans-serif" font-size="14.00" fill="#000000"> &#160;Bootstrap</text>
<polygon fill="#fdb462" stroke="transparent" points="339,-10 339,-30 359,-30 359,-10 339,-10"/>
<text text-anchor="start" x="362.6732" y="-15.4" font-family="sans-serif" font-size="14.00" fill="#000000"> &#160;Providers</text>
<polygon fill="#fb8072" stroke="transparent" points="435,-10 435,-30 455,-30 455,-10 435,-10"/>
<text text-anchor="start" x="458.7258" y="-15.4" font-family="sans-serif" font-size="14.00" fill="#000000"> &#160;Exports</text>
<g id="clust1" class="cluster">
<title>cluster_TemplatesModule</title>
<polygon fill="none" stroke="#000000" stroke-dasharray="1,5" points="8,-70 8,-268 546,-268 546,-70 8,-70"/>
</g>
<g id="clust2" class="cluster">
<title>cluster_TemplatesModule_declarations</title>
<polygon fill="none" stroke="#000000" points="126,-78 126,-130 538,-130 538,-78 126,-78"/>
</g>
<g id="clust5" class="cluster">
<title>cluster_TemplatesModule_imports</title>
<polygon fill="none" stroke="#000000" points="16,-78 16,-130 118,-130 118,-78 16,-78"/>
</g>
<g id="clust6" class="cluster">
<title>cluster_TemplatesModule_exports</title>
<polygon fill="none" stroke="#000000" points="68,-208 68,-260 487,-260 487,-208 68,-208"/>
</g>
<!-- TemplateContainerComponent -->
<g id="node1" class="node">
<title>TemplateContainerComponent</title>
<polygon fill="#ffffb3" stroke="#000000" points="529.9086,-122 340.0914,-122 340.0914,-86 529.9086,-86 529.9086,-122"/>
<text text-anchor="middle" x="435" y="-99.8" font-family="Times,serif" font-size="14.00" fill="#000000">TemplateContainerComponent</text>
</g>
<!-- TemplatesModule -->
<g id="node3" class="node">
<title>TemplatesModule</title>
<polygon fill="#8dd3c7" stroke="#000000" points="286.8627,-187 283.8627,-191 262.8627,-191 259.8627,-187 169.1373,-187 169.1373,-151 286.8627,-151 286.8627,-187"/>
<text text-anchor="middle" x="228" y="-164.8" font-family="Times,serif" font-size="14.00" fill="#000000">TemplatesModule</text>
</g>
<!-- TemplateContainerComponent&#45;&gt;TemplatesModule -->
<g id="edge1" class="edge">
<title>TemplateContainerComponent&#45;&gt;TemplatesModule</title>
<path fill="none" stroke="#000000" d="M409.875,-122.1061C409.875,-141.3391 409.875,-169 409.875,-169 409.875,-169 297.0496,-169 297.0496,-169"/>
<polygon fill="#000000" stroke="#000000" points="297.0496,-165.5001 287.0496,-169 297.0496,-172.5001 297.0496,-165.5001"/>
</g>
<!-- TemplateFullwidthComponent -->
<g id="node2" class="node">
<title>TemplateFullwidthComponent</title>
<polygon fill="#ffffb3" stroke="#000000" points="322.1525,-122 133.8475,-122 133.8475,-86 322.1525,-86 322.1525,-122"/>
<text text-anchor="middle" x="228" y="-99.8" font-family="Times,serif" font-size="14.00" fill="#000000">TemplateFullwidthComponent</text>
</g>
<!-- TemplateFullwidthComponent&#45;&gt;TemplatesModule -->
<g id="edge2" class="edge">
<title>TemplateFullwidthComponent&#45;&gt;TemplatesModule</title>
<path fill="none" stroke="#000000" d="M228,-122.1061C228,-122.1061 228,-140.991 228,-140.991"/>
<polygon fill="#000000" stroke="#000000" points="224.5001,-140.9909 228,-150.991 231.5001,-140.991 224.5001,-140.9909"/>
</g>
<!-- TemplateContainerComponent  -->
<g id="node5" class="node">
<title>TemplateContainerComponent </title>
<polygon fill="#fb8072" stroke="#000000" points="479.4082,-252 286.5918,-252 286.5918,-216 479.4082,-216 479.4082,-252"/>
<text text-anchor="middle" x="383" y="-229.8" font-family="Times,serif" font-size="14.00" fill="#000000">TemplateContainerComponent </text>
</g>
<!-- TemplatesModule&#45;&gt;TemplateContainerComponent  -->
<g id="edge4" class="edge">
<title>TemplatesModule&#45;&gt;TemplateContainerComponent </title>
<path fill="none" stroke="#000000" stroke-dasharray="5,2" d="M277.311,-187.1061C277.311,-206.3391 277.311,-234 277.311,-234 277.311,-234 278.2121,-234 278.2121,-234"/>
<polygon fill="#000000" stroke="#000000" points="276.322,-237.5001 286.322,-234 276.3219,-230.5001 276.322,-237.5001"/>
</g>
<!-- TemplateFullwidthComponent  -->
<g id="node6" class="node">
<title>TemplateFullwidthComponent </title>
<polygon fill="#fb8072" stroke="#000000" points="268.1523,-252 75.8477,-252 75.8477,-216 268.1523,-216 268.1523,-252"/>
<text text-anchor="middle" x="172" y="-229.8" font-family="Times,serif" font-size="14.00" fill="#000000">TemplateFullwidthComponent </text>
</g>
<!-- TemplatesModule&#45;&gt;TemplateFullwidthComponent  -->
<g id="edge5" class="edge">
<title>TemplatesModule&#45;&gt;TemplateFullwidthComponent </title>
<path fill="none" stroke="#000000" stroke-dasharray="5,2" d="M218.5724,-187.1061C218.5724,-187.1061 218.5724,-205.991 218.5724,-205.991"/>
<polygon fill="#000000" stroke="#000000" points="215.0725,-205.9909 218.5724,-215.991 222.0725,-205.991 215.0725,-205.9909"/>
</g>
<!-- TextModule -->
<g id="node4" class="node">
<title>TextModule</title>
<polygon fill="#8dd3c7" stroke="#000000" points="109.7079,-122 106.7079,-126 85.7079,-126 82.7079,-122 24.2921,-122 24.2921,-86 109.7079,-86 109.7079,-122"/>
<text text-anchor="middle" x="67" y="-99.8" font-family="Times,serif" font-size="14.00" fill="#000000">TextModule</text>
</g>
<!-- TextModule&#45;&gt;TemplatesModule -->
<g id="edge3" class="edge">
<title>TextModule&#45;&gt;TemplatesModule</title>
<path fill="none" stroke="#000000" d="M92.7639,-122.1061C92.7639,-141.3391 92.7639,-169 92.7638,-169 92.7638,-169 159.0769,-169 159.0769,-169"/>
<polygon fill="#000000" stroke="#000000" points="159.0769,-172.5001 169.0769,-169 159.0768,-165.5001 159.0769,-172.5001"/>
</g>
</g>
</svg>
