<?xml version="1.0" encoding="UTF-8" standalone="no"?>
<!DOCTYPE svg PUBLIC "-//W3C//DTD SVG 1.1//EN"
 "http://www.w3.org/Graphics/SVG/1.1/DTD/svg11.dtd">
<!-- Generated by graphviz version 2.40.1 (20161225.0304)
 -->
<!-- Title: dependencies Pages: 1 -->
<svg width="1132pt" height="284pt"
 viewBox="0.00 0.00 1132.00 284.00" xmlns="http://www.w3.org/2000/svg" xmlns:xlink="http://www.w3.org/1999/xlink">
<g id="graph0" class="graph" transform="scale(1 1) rotate(0) translate(4 280)">
<title>dependencies</title>
<polygon fill="#ffffff" stroke="transparent" points="-4,4 -4,-280 1128,-280 1128,4 -4,4"/>
<text text-anchor="start" x="541.0091" y="-42.4" font-family="sans-serif" font-weight="bold" font-size="14.00" fill="#000000">Legend</text>
<polygon fill="#ffffb3" stroke="transparent" points="328,-10 328,-30 348,-30 348,-10 328,-10"/>
<text text-anchor="start" x="351.629" y="-15.4" font-family="sans-serif" font-size="14.00" fill="#000000"> &#160;Declarations</text>
<polygon fill="#8dd3c7" stroke="transparent" points="441,-10 441,-30 461,-30 461,-10 441,-10"/>
<text text-anchor="start" x="464.7251" y="-15.4" font-family="sans-serif" font-size="14.00" fill="#000000"> &#160;Module</text>
<polygon fill="#80b1d3" stroke="transparent" points="527,-10 527,-30 547,-30 547,-10 527,-10"/>
<text text-anchor="start" x="550.7812" y="-15.4" font-family="sans-serif" font-size="14.00" fill="#000000"> &#160;Bootstrap</text>
<polygon fill="#fdb462" stroke="transparent" points="624,-10 624,-30 644,-30 644,-10 624,-10"/>
<text text-anchor="start" x="647.6732" y="-15.4" font-family="sans-serif" font-size="14.00" fill="#000000"> &#160;Providers</text>
<polygon fill="#fb8072" stroke="transparent" points="720,-10 720,-30 740,-30 740,-10 720,-10"/>
<text text-anchor="start" x="743.7258" y="-15.4" font-family="sans-serif" font-size="14.00" fill="#000000"> &#160;Exports</text>
<g id="clust1" class="cluster">
<title>cluster_SharedModule</title>
<polygon fill="none" stroke="#000000" stroke-dasharray="1,5" points="8,-70 8,-268 1116,-268 1116,-70 8,-70"/>
</g>
<g id="clust2" class="cluster">
<title>cluster_SharedModule_declarations</title>
<polygon fill="none" stroke="#000000" points="143,-78 143,-130 971,-130 971,-78 143,-78"/>
</g>
<g id="clust10" class="cluster">
<title>cluster_SharedModule_exports</title>
<polygon fill="none" stroke="#000000" points="16,-208 16,-260 1108,-260 1108,-208 16,-208"/>
</g>
<!-- ButtonComponent -->
<g id="node1" class="node">
<title>ButtonComponent</title>
<polygon fill="#ffffb3" stroke="#000000" points="962.9511,-122 843.0489,-122 843.0489,-86 962.9511,-86 962.9511,-122"/>
<text text-anchor="middle" x="903" y="-99.8" font-family="Times,serif" font-size="14.00" fill="#000000">ButtonComponent</text>
</g>
<!-- SharedModule -->
<g id="node7" class="node">
<title>SharedModule</title>
<polygon fill="#8dd3c7" stroke="#000000" points="579.4231,-187 576.4231,-191 555.4231,-191 552.4231,-187 480.5769,-187 480.5769,-151 579.4231,-151 579.4231,-187"/>
<text text-anchor="middle" x="530" y="-164.8" font-family="Times,serif" font-size="14.00" fill="#000000">SharedModule</text>
</g>
<!-- ButtonComponent&#45;&gt;SharedModule -->
<g id="edge1" class="edge">
<title>ButtonComponent&#45;&gt;SharedModule</title>
<path fill="none" stroke="#000000" d="M851.7435,-122.0225C851.7435,-139.3734 851.7435,-163 851.7435,-163 851.7435,-163 589.2161,-163 589.2161,-163"/>
<polygon fill="#000000" stroke="#000000" points="589.2162,-159.5001 579.2161,-163 589.2161,-166.5001 589.2162,-159.5001"/>
</g>
<!-- StateDirective -->
<g id="node2" class="node">
<title>StateDirective</title>
<polygon fill="#ffffb3" stroke="#000000" points="825.0758,-122 728.9242,-122 728.9242,-86 825.0758,-86 825.0758,-122"/>
<text text-anchor="middle" x="777" y="-99.8" font-family="Times,serif" font-size="14.00" fill="#000000">StateDirective</text>
</g>
<!-- StateDirective&#45;&gt;SharedModule -->
<g id="edge2" class="edge">
<title>StateDirective&#45;&gt;SharedModule</title>
<path fill="none" stroke="#000000" d="M777,-122.2396C777,-137.5706 777,-157 777,-157 777,-157 589.3905,-157 589.3905,-157"/>
<polygon fill="#000000" stroke="#000000" points="589.3905,-153.5001 579.3905,-157 589.3905,-160.5001 589.3905,-153.5001"/>
</g>
<!-- SubnavComponent -->
<g id="node3" class="node">
<title>SubnavComponent</title>
<polygon fill="#ffffb3" stroke="#000000" points="710.83,-122 587.17,-122 587.17,-86 710.83,-86 710.83,-122"/>
<text text-anchor="middle" x="649" y="-99.8" font-family="Times,serif" font-size="14.00" fill="#000000">SubnavComponent</text>
</g>
<!-- SubnavComponent&#45;&gt;SharedModule -->
<g id="edge3" class="edge">
<title>SubnavComponent&#45;&gt;SharedModule</title>
<path fill="none" stroke="#000000" d="M587.234,-104C579.4831,-104 574.2059,-104 574.2059,-104 574.2059,-104 574.2059,-140.8939 574.2059,-140.8939"/>
<polygon fill="#000000" stroke="#000000" points="570.7059,-140.8938 574.2059,-150.8939 577.7059,-140.8939 570.7059,-140.8938"/>
</g>
<!-- TableauDarkComponent -->
<g id="node4" class="node">
<title>TableauDarkComponent</title>
<polygon fill="#ffffb3" stroke="#000000" points="569.4017,-122 414.5983,-122 414.5983,-86 569.4017,-86 569.4017,-122"/>
<text text-anchor="middle" x="492" y="-99.8" font-family="Times,serif" font-size="14.00" fill="#000000">TableauDarkComponent</text>
</g>
<!-- TableauDarkComponent&#45;&gt;SharedModule -->
<g id="edge4" class="edge">
<title>TableauDarkComponent&#45;&gt;SharedModule</title>
<path fill="none" stroke="#000000" d="M524.9948,-122.1061C524.9948,-122.1061 524.9948,-140.991 524.9948,-140.991"/>
<polygon fill="#000000" stroke="#000000" points="521.4948,-140.9909 524.9948,-150.991 528.4948,-140.991 521.4948,-140.9909"/>
</g>
<!-- TableauLightComponent -->
<g id="node5" class="node">
<title>TableauLightComponent</title>
<polygon fill="#ffffb3" stroke="#000000" points="396.2534,-122 239.7466,-122 239.7466,-86 396.2534,-86 396.2534,-122"/>
<text text-anchor="middle" x="318" y="-99.8" font-family="Times,serif" font-size="14.00" fill="#000000">TableauLightComponent</text>
</g>
<!-- TableauLightComponent&#45;&gt;SharedModule -->
<g id="edge5" class="edge">
<title>TableauLightComponent&#45;&gt;SharedModule</title>
<path fill="none" stroke="#000000" d="M379.125,-122.2396C379.125,-137.5706 379.125,-157 379.125,-157 379.125,-157 470.5979,-157 470.5979,-157"/>
<polygon fill="#000000" stroke="#000000" points="470.5979,-160.5001 480.5979,-157 470.5978,-153.5001 470.5979,-160.5001"/>
</g>
<!-- TotalPipe -->
<g id="node6" class="node">
<title>TotalPipe</title>
<polygon fill="#ffffb3" stroke="#000000" points="221.4376,-122 150.5624,-122 150.5624,-86 221.4376,-86 221.4376,-122"/>
<text text-anchor="middle" x="186" y="-99.8" font-family="Times,serif" font-size="14.00" fill="#000000">TotalPipe</text>
</g>
<!-- TotalPipe&#45;&gt;SharedModule -->
<g id="edge6" class="edge">
<title>TotalPipe&#45;&gt;SharedModule</title>
<path fill="none" stroke="#000000" d="M212.786,-122.0225C212.786,-139.3734 212.786,-163 212.786,-163 212.786,-163 470.7834,-163 470.7834,-163"/>
<polygon fill="#000000" stroke="#000000" points="470.7834,-166.5001 480.7834,-163 470.7833,-159.5001 470.7834,-166.5001"/>
</g>
<!-- ButtonComponent  -->
<g id="node8" class="node">
<title>ButtonComponent </title>
<polygon fill="#fb8072" stroke="#000000" points="1100.4502,-252 977.5498,-252 977.5498,-216 1100.4502,-216 1100.4502,-252"/>
<text text-anchor="middle" x="1039" y="-229.8" font-family="Times,serif" font-size="14.00" fill="#000000">ButtonComponent </text>
</g>
<!-- SharedModule&#45;&gt;ButtonComponent  -->
<g id="edge7" class="edge">
<title>SharedModule&#45;&gt;ButtonComponent </title>
<path fill="none" stroke="#000000" stroke-dasharray="5,2" d="M579.2675,-169C707.007,-169 1039,-169 1039,-169 1039,-169 1039,-205.8939 1039,-205.8939"/>
<polygon fill="#000000" stroke="#000000" points="1035.5001,-205.8938 1039,-215.8939 1042.5001,-205.8939 1035.5001,-205.8938"/>
</g>
<!-- StateDirective  -->
<g id="node9" class="node">
<title>StateDirective </title>
<polygon fill="#fb8072" stroke="#000000" points="959.5767,-252 860.4233,-252 860.4233,-216 959.5767,-216 959.5767,-252"/>
<text text-anchor="middle" x="910" y="-229.8" font-family="Times,serif" font-size="14.00" fill="#000000">StateDirective </text>
</g>
<!-- SharedModule&#45;&gt;StateDirective  -->
<g id="edge8" class="edge">
<title>SharedModule&#45;&gt;StateDirective </title>
<path fill="none" stroke="#000000" stroke-dasharray="5,2" d="M579.2888,-175C682.1075,-175 910,-175 910,-175 910,-175 910,-205.9775 910,-205.9775"/>
<polygon fill="#000000" stroke="#000000" points="906.5001,-205.9774 910,-215.9775 913.5001,-205.9775 906.5001,-205.9774"/>
</g>
<!-- SubnavComponent  -->
<g id="node10" class="node">
<title>SubnavComponent </title>
<polygon fill="#fb8072" stroke="#000000" points="842.3297,-252 715.6703,-252 715.6703,-216 842.3297,-216 842.3297,-252"/>
<text text-anchor="middle" x="779" y="-229.8" font-family="Times,serif" font-size="14.00" fill="#000000">SubnavComponent </text>
</g>
<!-- SharedModule&#45;&gt;SubnavComponent  -->
<g id="edge9" class="edge">
<title>SharedModule&#45;&gt;SubnavComponent </title>
<path fill="none" stroke="#000000" stroke-dasharray="5,2" d="M579.5152,-181C636.4846,-181 722.2737,-181 722.2737,-181 722.2737,-181 722.2737,-205.7604 722.2737,-205.7604"/>
<polygon fill="#000000" stroke="#000000" points="718.7737,-205.7604 722.2737,-215.7604 725.7737,-205.7604 718.7737,-205.7604"/>
</g>
<!-- TableauDarkComponent  -->
<g id="node11" class="node">
<title>TableauDarkComponent </title>
<polygon fill="#fb8072" stroke="#000000" points="697.9012,-252 540.0988,-252 540.0988,-216 697.9012,-216 697.9012,-252"/>
<text text-anchor="middle" x="619" y="-229.8" font-family="Times,serif" font-size="14.00" fill="#000000">TableauDarkComponent </text>
</g>
<!-- SharedModule&#45;&gt;TableauDarkComponent  -->
<g id="edge10" class="edge">
<title>SharedModule&#45;&gt;TableauDarkComponent </title>
<path fill="none" stroke="#000000" stroke-dasharray="5,2" d="M559.6302,-187.1061C559.6302,-187.1061 559.6302,-205.991 559.6302,-205.991"/>
<polygon fill="#000000" stroke="#000000" points="556.1303,-205.9909 559.6302,-215.991 563.1303,-205.991 556.1303,-205.9909"/>
</g>
<!-- TableauLightComponent  -->
<g id="node12" class="node">
<title>TableauLightComponent </title>
<polygon fill="#fb8072" stroke="#000000" points="522.2534,-252 361.7466,-252 361.7466,-216 522.2534,-216 522.2534,-252"/>
<text text-anchor="middle" x="442" y="-229.8" font-family="Times,serif" font-size="14.00" fill="#000000">TableauLightComponent </text>
</g>
<!-- SharedModule&#45;&gt;TableauLightComponent  -->
<g id="edge11" class="edge">
<title>SharedModule&#45;&gt;TableauLightComponent </title>
<path fill="none" stroke="#000000" stroke-dasharray="5,2" d="M501.4578,-187.1061C501.4578,-187.1061 501.4578,-205.991 501.4578,-205.991"/>
<polygon fill="#000000" stroke="#000000" points="497.9578,-205.9909 501.4578,-215.991 504.9578,-205.991 497.9578,-205.9909"/>
</g>
<!-- TemplatesModule  -->
<g id="node13" class="node">
<title>TemplatesModule </title>
<polygon fill="#fb8072" stroke="#000000" points="343.8631,-252 222.1369,-252 222.1369,-216 343.8631,-216 343.8631,-252"/>
<text text-anchor="middle" x="283" y="-229.8" font-family="Times,serif" font-size="14.00" fill="#000000">TemplatesModule </text>
</g>
<!-- SharedModule&#45;&gt;TemplatesModule  -->
<g id="edge12" class="edge">
<title>SharedModule&#45;&gt;TemplatesModule </title>
<path fill="none" stroke="#000000" stroke-dasharray="5,2" d="M480.6142,-181C410.8007,-181 291.6524,-181 291.6524,-181 291.6524,-181 291.6524,-205.7604 291.6524,-205.7604"/>
<polygon fill="#000000" stroke="#000000" points="288.1524,-205.7604 291.6524,-215.7604 295.1524,-205.7604 288.1524,-205.7604"/>
</g>
<!-- TextModule  -->
<g id="node14" class="node">
<title>TextModule </title>
<polygon fill="#fb8072" stroke="#000000" points="204.2081,-252 115.7919,-252 115.7919,-216 204.2081,-216 204.2081,-252"/>
<text text-anchor="middle" x="160" y="-229.8" font-family="Times,serif" font-size="14.00" fill="#000000">TextModule </text>
</g>
<!-- SharedModule&#45;&gt;TextModule  -->
<g id="edge13" class="edge">
<title>SharedModule&#45;&gt;TextModule </title>
<path fill="none" stroke="#000000" stroke-dasharray="5,2" d="M480.6247,-175C383.6304,-175 177.5679,-175 177.5679,-175 177.5679,-175 177.5679,-205.9775 177.5679,-205.9775"/>
<polygon fill="#000000" stroke="#000000" points="174.0679,-205.9774 177.5679,-215.9775 181.0679,-205.9775 174.0679,-205.9774"/>
</g>
<!-- TotalPipe  -->
<g id="node15" class="node">
<title>TotalPipe </title>
<polygon fill="#fb8072" stroke="#000000" points="97.9362,-252 24.0638,-252 24.0638,-216 97.9362,-216 97.9362,-252"/>
<text text-anchor="middle" x="61" y="-229.8" font-family="Times,serif" font-size="14.00" fill="#000000">TotalPipe </text>
</g>
<!-- SharedModule&#45;&gt;TotalPipe  -->
<g id="edge14" class="edge">
<title>SharedModule&#45;&gt;TotalPipe </title>
<path fill="none" stroke="#000000" stroke-dasharray="5,2" d="M480.6952,-169C360.2813,-169 61,-169 61,-169 61,-169 61,-205.8939 61,-205.8939"/>
<polygon fill="#000000" stroke="#000000" points="57.5001,-205.8938 61,-215.8939 64.5001,-205.8939 57.5001,-205.8938"/>
</g>
</g>
</svg>
