<?xml version="1.0" encoding="UTF-8" standalone="no"?>
<!DOCTYPE svg PUBLIC "-//W3C//DTD SVG 1.1//EN"
 "http://www.w3.org/Graphics/SVG/1.1/DTD/svg11.dtd">
<!-- Generated by graphviz version 2.40.1 (20161225.0304)
 -->
<!-- Title: dependencies Pages: 1 -->
<svg width="504pt" height="284pt"
 viewBox="0.00 0.00 504.00 284.00" xmlns="http://www.w3.org/2000/svg" xmlns:xlink="http://www.w3.org/1999/xlink">
<g id="graph0" class="graph" transform="scale(1 1) rotate(0) translate(4 280)">
<title>dependencies</title>
<polygon fill="#ffffff" stroke="transparent" points="-4,4 -4,-280 500,-280 500,4 -4,4"/>
<text text-anchor="start" x="227.0091" y="-42.4" font-family="sans-serif" font-weight="bold" font-size="14.00" fill="#000000">Legend</text>
<polygon fill="#ffffb3" stroke="transparent" points="14,-10 14,-30 34,-30 34,-10 14,-10"/>
<text text-anchor="start" x="37.629" y="-15.4" font-family="sans-serif" font-size="14.00" fill="#000000"> &#160;Declarations</text>
<polygon fill="#8dd3c7" stroke="transparent" points="127,-10 127,-30 147,-30 147,-10 127,-10"/>
<text text-anchor="start" x="150.7251" y="-15.4" font-family="sans-serif" font-size="14.00" fill="#000000"> &#160;Module</text>
<polygon fill="#80b1d3" stroke="transparent" points="213,-10 213,-30 233,-30 233,-10 213,-10"/>
<text text-anchor="start" x="236.7812" y="-15.4" font-family="sans-serif" font-size="14.00" fill="#000000"> &#160;Bootstrap</text>
<polygon fill="#fdb462" stroke="transparent" points="310,-10 310,-30 330,-30 330,-10 310,-10"/>
<text text-anchor="start" x="333.6732" y="-15.4" font-family="sans-serif" font-size="14.00" fill="#000000"> &#160;Providers</text>
<polygon fill="#fb8072" stroke="transparent" points="406,-10 406,-30 426,-30 426,-10 406,-10"/>
<text text-anchor="start" x="429.7258" y="-15.4" font-family="sans-serif" font-size="14.00" fill="#000000"> &#160;Exports</text>
<g id="clust1" class="cluster">
<title>cluster_TextModule</title>
<polygon fill="none" stroke="#000000" stroke-dasharray="1,5" points="71.5,-70 71.5,-268 424.5,-268 424.5,-70 71.5,-70"/>
</g>
<g id="clust2" class="cluster">
<title>cluster_TextModule_declarations</title>
<polygon fill="none" stroke="#000000" points="83.5,-78 83.5,-130 413.5,-130 413.5,-78 83.5,-78"/>
</g>
<g id="clust6" class="cluster">
<title>cluster_TextModule_exports</title>
<polygon fill="none" stroke="#000000" points="79.5,-208 79.5,-260 416.5,-260 416.5,-208 79.5,-208"/>
</g>
<!-- TextBandeauComponent -->
<g id="node1" class="node">
<title>TextBandeauComponent</title>
<polygon fill="#ffffb3" stroke="#000000" points="405.4706,-122 249.5294,-122 249.5294,-86 405.4706,-86 405.4706,-122"/>
<text text-anchor="middle" x="327.5" y="-99.8" font-family="Times,serif" font-size="14.00" fill="#000000">TextBandeauComponent</text>
</g>
<!-- TextModule -->
<g id="node3" class="node">
<title>TextModule</title>
<polygon fill="#8dd3c7" stroke="#000000" points="205.2079,-187 202.2079,-191 181.2079,-191 178.2079,-187 119.7921,-187 119.7921,-151 205.2079,-151 205.2079,-187"/>
<text text-anchor="middle" x="162.5" y="-164.8" font-family="Times,serif" font-size="14.00" fill="#000000">TextModule</text>
</g>
<!-- TextBandeauComponent&#45;&gt;TextModule -->
<g id="edge1" class="edge">
<title>TextBandeauComponent&#45;&gt;TextModule</title>
<path fill="none" stroke="#000000" d="M353.4951,-122.0225C353.4951,-139.3734 353.4951,-163 353.4951,-163 353.4951,-163 215.363,-163 215.363,-163"/>
<polygon fill="#000000" stroke="#000000" points="215.3631,-159.5001 205.363,-163 215.363,-166.5001 215.3631,-159.5001"/>
</g>
<!-- TextPagesComponent -->
<g id="node2" class="node">
<title>TextPagesComponent</title>
<polygon fill="#ffffb3" stroke="#000000" points="231.147,-122 91.853,-122 91.853,-86 231.147,-86 231.147,-122"/>
<text text-anchor="middle" x="161.5" y="-99.8" font-family="Times,serif" font-size="14.00" fill="#000000">TextPagesComponent</text>
</g>
<!-- TextPagesComponent&#45;&gt;TextModule -->
<g id="edge2" class="edge">
<title>TextPagesComponent&#45;&gt;TextModule</title>
<path fill="none" stroke="#000000" d="M162.5,-122.1061C162.5,-122.1061 162.5,-140.991 162.5,-140.991"/>
<polygon fill="#000000" stroke="#000000" points="159.0001,-140.9909 162.5,-150.991 166.0001,-140.991 159.0001,-140.9909"/>
</g>
<!-- TextBandeauComponent  -->
<g id="node4" class="node">
<title>TextBandeauComponent </title>
<polygon fill="#fb8072" stroke="#000000" points="408.4713,-252 248.5287,-252 248.5287,-216 408.4713,-216 408.4713,-252"/>
<text text-anchor="middle" x="328.5" y="-229.8" font-family="Times,serif" font-size="14.00" fill="#000000">TextBandeauComponent </text>
</g>
<!-- TextModule&#45;&gt;TextBandeauComponent  -->
<g id="edge3" class="edge">
<title>TextModule&#45;&gt;TextBandeauComponent </title>
<path fill="none" stroke="#000000" stroke-dasharray="5,2" d="M205.3403,-175C246.1832,-175 301.5049,-175 301.5049,-175 301.5049,-175 301.5049,-205.9775 301.5049,-205.9775"/>
<polygon fill="#000000" stroke="#000000" points="298.005,-205.9774 301.5049,-215.9775 305.005,-205.9775 298.005,-205.9774"/>
</g>
<!-- TextPagesComponent  -->
<g id="node5" class="node">
<title>TextPagesComponent </title>
<polygon fill="#fb8072" stroke="#000000" points="231.1467,-252 87.8533,-252 87.8533,-216 231.1467,-216 231.1467,-252"/>
<text text-anchor="middle" x="159.5" y="-229.8" font-family="Times,serif" font-size="14.00" fill="#000000">TextPagesComponent </text>
</g>
<!-- TextModule&#45;&gt;TextPagesComponent  -->
<g id="edge4" class="edge">
<title>TextModule&#45;&gt;TextPagesComponent </title>
<path fill="none" stroke="#000000" stroke-dasharray="5,2" d="M162.5,-187.1061C162.5,-187.1061 162.5,-205.991 162.5,-205.991"/>
<polygon fill="#000000" stroke="#000000" points="159.0001,-205.9909 162.5,-215.991 166.0001,-205.991 159.0001,-205.9909"/>
</g>
</g>
</svg>
