<?xml version="1.0" encoding="UTF-8" standalone="no"?>
<!DOCTYPE svg PUBLIC "-//W3C//DTD SVG 1.1//EN"
 "http://www.w3.org/Graphics/SVG/1.1/DTD/svg11.dtd">
<!-- Generated by graphviz version 2.40.1 (20161225.0304)
 -->
<!-- Title: dependencies Pages: 1 -->
<svg width="504pt" height="211pt"
 viewBox="0.00 0.00 504.00 211.00" xmlns="http://www.w3.org/2000/svg" xmlns:xlink="http://www.w3.org/1999/xlink">
<g id="graph0" class="graph" transform="scale(1 1) rotate(0) translate(4 207)">
<title>dependencies</title>
<polygon fill="#ffffff" stroke="transparent" points="-4,4 -4,-207 500,-207 500,4 -4,4"/>
<text text-anchor="start" x="227.0091" y="-42.4" font-family="sans-serif" font-weight="bold" font-size="14.00" fill="#000000">Legend</text>
<polygon fill="#ffffb3" stroke="transparent" points="14,-10 14,-30 34,-30 34,-10 14,-10"/>
<text text-anchor="start" x="37.629" y="-15.4" font-family="sans-serif" font-size="14.00" fill="#000000"> &#160;Declarations</text>
<polygon fill="#8dd3c7" stroke="transparent" points="127,-10 127,-30 147,-30 147,-10 127,-10"/>
<text text-anchor="start" x="150.7251" y="-15.4" font-family="sans-serif" font-size="14.00" fill="#000000"> &#160;Module</text>
<polygon fill="#80b1d3" stroke="transparent" points="213,-10 213,-30 233,-30 233,-10 213,-10"/>
<text text-anchor="start" x="236.7812" y="-15.4" font-family="sans-serif" font-size="14.00" fill="#000000"> &#160;Bootstrap</text>
<polygon fill="#fdb462" stroke="transparent" points="310,-10 310,-30 330,-30 330,-10 310,-10"/>
<text text-anchor="start" x="333.6732" y="-15.4" font-family="sans-serif" font-size="14.00" fill="#000000"> &#160;Providers</text>
<polygon fill="#fb8072" stroke="transparent" points="406,-10 406,-30 426,-30 426,-10 406,-10"/>
<text text-anchor="start" x="429.7258" y="-15.4" font-family="sans-serif" font-size="14.00" fill="#000000"> &#160;Exports</text>
<g id="clust1" class="cluster">
<title>cluster_LoginModule</title>
<polygon fill="none" stroke="#000000" stroke-dasharray="1,5" points="80,-70 80,-195 416,-195 416,-70 80,-70"/>
</g>
<g id="clust2" class="cluster">
<title>cluster_LoginModule_declarations</title>
<polygon fill="none" stroke="#000000" points="250,-78 250,-130 408,-130 408,-78 250,-78"/>
</g>
<g id="clust4" class="cluster">
<title>cluster_LoginModule_imports</title>
<polygon fill="none" stroke="#000000" points="88,-78 88,-130 242,-130 242,-78 88,-78"/>
</g>
<!-- PageLoginComponent -->
<g id="node1" class="node">
<title>PageLoginComponent</title>
<polygon fill="#ffffb3" stroke="#000000" points="399.9874,-122 258.0126,-122 258.0126,-86 399.9874,-86 399.9874,-122"/>
<text text-anchor="middle" x="329" y="-99.8" font-family="Times,serif" font-size="14.00" fill="#000000">PageLoginComponent</text>
</g>
<!-- LoginModule -->
<g id="node2" class="node">
<title>LoginModule</title>
<polygon fill="#8dd3c7" stroke="#000000" points="293.493,-187 290.493,-191 269.493,-191 266.493,-187 200.507,-187 200.507,-151 293.493,-151 293.493,-187"/>
<text text-anchor="middle" x="247" y="-164.8" font-family="Times,serif" font-size="14.00" fill="#000000">LoginModule</text>
</g>
<!-- PageLoginComponent&#45;&gt;LoginModule -->
<g id="edge1" class="edge">
<title>PageLoginComponent&#45;&gt;LoginModule</title>
<path fill="none" stroke="#000000" d="M275.7514,-122.1061C275.7514,-122.1061 275.7514,-140.991 275.7514,-140.991"/>
<polygon fill="#000000" stroke="#000000" points="272.2515,-140.9909 275.7514,-150.991 279.2515,-140.991 272.2515,-140.9909"/>
</g>
<!-- LoginRoutingModule -->
<g id="node3" class="node">
<title>LoginRoutingModule</title>
<polygon fill="#8dd3c7" stroke="#000000" points="234.1108,-122 231.1108,-126 210.1108,-126 207.1108,-122 95.8892,-122 95.8892,-86 234.1108,-86 234.1108,-122"/>
<text text-anchor="middle" x="165" y="-99.8" font-family="Times,serif" font-size="14.00" fill="#000000">LoginRoutingModule</text>
</g>
<!-- LoginRoutingModule&#45;&gt;LoginModule -->
<g id="edge2" class="edge">
<title>LoginRoutingModule&#45;&gt;LoginModule</title>
<path fill="none" stroke="#000000" d="M217.2795,-122.1061C217.2795,-122.1061 217.2795,-140.991 217.2795,-140.991"/>
<polygon fill="#000000" stroke="#000000" points="213.7795,-140.9909 217.2795,-150.991 220.7795,-140.991 213.7795,-140.9909"/>
</g>
</g>
</svg>
