<?xml version="1.0" encoding="UTF-8" standalone="no"?>
<!DOCTYPE svg PUBLIC "-//W3C//DTD SVG 1.1//EN"
 "http://www.w3.org/Graphics/SVG/1.1/DTD/svg11.dtd">
<!-- Generated by graphviz version 2.40.1 (20161225.0304)
 -->
<!-- Title: dependencies Pages: 1 -->
<svg width="1042pt" height="211pt"
 viewBox="0.00 0.00 1042.00 211.00" xmlns="http://www.w3.org/2000/svg" xmlns:xlink="http://www.w3.org/1999/xlink">
<g id="graph0" class="graph" transform="scale(1 1) rotate(0) translate(4 207)">
<title>dependencies</title>
<polygon fill="#ffffff" stroke="transparent" points="-4,4 -4,-207 1038,-207 1038,4 -4,4"/>
<text text-anchor="start" x="496.0091" y="-42.4" font-family="sans-serif" font-weight="bold" font-size="14.00" fill="#000000">Legend</text>
<polygon fill="#ffffb3" stroke="transparent" points="283,-10 283,-30 303,-30 303,-10 283,-10"/>
<text text-anchor="start" x="306.629" y="-15.4" font-family="sans-serif" font-size="14.00" fill="#000000"> &#160;Declarations</text>
<polygon fill="#8dd3c7" stroke="transparent" points="396,-10 396,-30 416,-30 416,-10 396,-10"/>
<text text-anchor="start" x="419.7251" y="-15.4" font-family="sans-serif" font-size="14.00" fill="#000000"> &#160;Module</text>
<polygon fill="#80b1d3" stroke="transparent" points="482,-10 482,-30 502,-30 502,-10 482,-10"/>
<text text-anchor="start" x="505.7812" y="-15.4" font-family="sans-serif" font-size="14.00" fill="#000000"> &#160;Bootstrap</text>
<polygon fill="#fdb462" stroke="transparent" points="579,-10 579,-30 599,-30 599,-10 579,-10"/>
<text text-anchor="start" x="602.6732" y="-15.4" font-family="sans-serif" font-size="14.00" fill="#000000"> &#160;Providers</text>
<polygon fill="#fb8072" stroke="transparent" points="675,-10 675,-30 695,-30 695,-10 675,-10"/>
<text text-anchor="start" x="698.7258" y="-15.4" font-family="sans-serif" font-size="14.00" fill="#000000"> &#160;Exports</text>
<g id="clust1" class="cluster">
<title>cluster_ClientsModule</title>
<polygon fill="none" stroke="#000000" stroke-dasharray="1,5" points="8,-70 8,-195 1026,-195 1026,-70 8,-70"/>
</g>
<g id="clust2" class="cluster">
<title>cluster_ClientsModule_declarations</title>
<polygon fill="none" stroke="#000000" points="300,-78 300,-130 1018,-130 1018,-78 300,-78"/>
</g>
<g id="clust7" class="cluster">
<title>cluster_ClientsModule_imports</title>
<polygon fill="none" stroke="#000000" points="16,-78 16,-130 292,-130 292,-78 16,-78"/>
</g>
<!-- FormClientComponent -->
<g id="node1" class="node">
<title>FormClientComponent</title>
<polygon fill="#ffffb3" stroke="#000000" points="1009.8892,-122 864.1108,-122 864.1108,-86 1009.8892,-86 1009.8892,-122"/>
<text text-anchor="middle" x="937" y="-99.8" font-family="Times,serif" font-size="14.00" fill="#000000">FormClientComponent</text>
</g>
<!-- ClientsModule -->
<g id="node5" class="node">
<title>ClientsModule</title>
<polygon fill="#8dd3c7" stroke="#000000" points="535.7176,-187 532.7176,-191 511.7176,-191 508.7176,-187 436.2824,-187 436.2824,-151 535.7176,-151 535.7176,-187"/>
<text text-anchor="middle" x="486" y="-164.8" font-family="Times,serif" font-size="14.00" fill="#000000">ClientsModule</text>
</g>
<!-- FormClientComponent&#45;&gt;ClientsModule -->
<g id="edge1" class="edge">
<title>FormClientComponent&#45;&gt;ClientsModule</title>
<path fill="none" stroke="#000000" d="M937,-122.2843C937,-143.3211 937,-175 937,-175 937,-175 545.9881,-175 545.9881,-175"/>
<polygon fill="#000000" stroke="#000000" points="545.9881,-171.5001 535.9881,-175 545.988,-178.5001 545.9881,-171.5001"/>
</g>
<!-- PageAddClientComponent -->
<g id="node2" class="node">
<title>PageAddClientComponent</title>
<polygon fill="#ffffb3" stroke="#000000" points="846.3738,-122 679.6262,-122 679.6262,-86 846.3738,-86 846.3738,-122"/>
<text text-anchor="middle" x="763" y="-99.8" font-family="Times,serif" font-size="14.00" fill="#000000">PageAddClientComponent</text>
</g>
<!-- PageAddClientComponent&#45;&gt;ClientsModule -->
<g id="edge2" class="edge">
<title>PageAddClientComponent&#45;&gt;ClientsModule</title>
<path fill="none" stroke="#000000" d="M763,-122.0225C763,-139.3734 763,-163 763,-163 763,-163 545.842,-163 545.842,-163"/>
<polygon fill="#000000" stroke="#000000" points="545.842,-159.5001 535.842,-163 545.8419,-166.5001 545.842,-159.5001"/>
</g>
<!-- PageEditClientComponent -->
<g id="node3" class="node">
<title>PageEditClientComponent</title>
<polygon fill="#ffffb3" stroke="#000000" points="662.101,-122 495.899,-122 495.899,-86 662.101,-86 662.101,-122"/>
<text text-anchor="middle" x="579" y="-99.8" font-family="Times,serif" font-size="14.00" fill="#000000">PageEditClientComponent</text>
</g>
<!-- PageEditClientComponent&#45;&gt;ClientsModule -->
<g id="edge3" class="edge">
<title>PageEditClientComponent&#45;&gt;ClientsModule</title>
<path fill="none" stroke="#000000" d="M515.7791,-122.1061C515.7791,-122.1061 515.7791,-140.991 515.7791,-140.991"/>
<polygon fill="#000000" stroke="#000000" points="512.2792,-140.9909 515.7791,-150.991 519.2792,-140.991 512.2792,-140.9909"/>
</g>
<!-- PageListClientsComponent -->
<g id="node4" class="node">
<title>PageListClientsComponent</title>
<polygon fill="#ffffb3" stroke="#000000" points="477.9902,-122 308.0098,-122 308.0098,-86 477.9902,-86 477.9902,-122"/>
<text text-anchor="middle" x="393" y="-99.8" font-family="Times,serif" font-size="14.00" fill="#000000">PageListClientsComponent</text>
</g>
<!-- PageListClientsComponent&#45;&gt;ClientsModule -->
<g id="edge4" class="edge">
<title>PageListClientsComponent&#45;&gt;ClientsModule</title>
<path fill="none" stroke="#000000" d="M457.1932,-122.1061C457.1932,-122.1061 457.1932,-140.991 457.1932,-140.991"/>
<polygon fill="#000000" stroke="#000000" points="453.6933,-140.9909 457.1932,-150.991 460.6933,-140.991 453.6933,-140.9909"/>
</g>
<!-- ClientsRoutingModule -->
<g id="node6" class="node">
<title>ClientsRoutingModule</title>
<polygon fill="#8dd3c7" stroke="#000000" points="284.3356,-122 281.3356,-126 260.3356,-126 257.3356,-122 139.6644,-122 139.6644,-86 284.3356,-86 284.3356,-122"/>
<text text-anchor="middle" x="212" y="-99.8" font-family="Times,serif" font-size="14.00" fill="#000000">ClientsRoutingModule</text>
</g>
<!-- ClientsRoutingModule&#45;&gt;ClientsModule -->
<g id="edge5" class="edge">
<title>ClientsRoutingModule&#45;&gt;ClientsModule</title>
<path fill="none" stroke="#000000" d="M212,-122.0225C212,-139.3734 212,-163 212,-163 212,-163 426.3807,-163 426.3807,-163"/>
<polygon fill="#000000" stroke="#000000" points="426.3807,-166.5001 436.3807,-163 426.3806,-159.5001 426.3807,-166.5001"/>
</g>
<!-- SharedModule -->
<g id="node7" class="node">
<title>SharedModule</title>
<polygon fill="#8dd3c7" stroke="#000000" points="122.4231,-122 119.4231,-126 98.4231,-126 95.4231,-122 23.5769,-122 23.5769,-86 122.4231,-86 122.4231,-122"/>
<text text-anchor="middle" x="73" y="-99.8" font-family="Times,serif" font-size="14.00" fill="#000000">SharedModule</text>
</g>
<!-- SharedModule&#45;&gt;ClientsModule -->
<g id="edge6" class="edge">
<title>SharedModule&#45;&gt;ClientsModule</title>
<path fill="none" stroke="#000000" d="M73,-122.2843C73,-143.3211 73,-175 73,-175 73,-175 426.1826,-175 426.1826,-175"/>
<polygon fill="#000000" stroke="#000000" points="426.1826,-178.5001 436.1826,-175 426.1825,-171.5001 426.1826,-178.5001"/>
</g>
</g>
</svg>
