<?xml version="1.0" encoding="UTF-8" standalone="no"?>
<!DOCTYPE svg PUBLIC "-//W3C//DTD SVG 1.1//EN"
 "http://www.w3.org/Graphics/SVG/1.1/DTD/svg11.dtd">
<!-- Generated by graphviz version 2.40.1 (20161225.0304)
 -->
<!-- Title: dependencies Pages: 1 -->
<svg width="665pt" height="284pt"
 viewBox="0.00 0.00 665.00 284.00" xmlns="http://www.w3.org/2000/svg" xmlns:xlink="http://www.w3.org/1999/xlink">
<g id="graph0" class="graph" transform="scale(1 1) rotate(0) translate(4 280)">
<title>dependencies</title>
<polygon fill="#ffffff" stroke="transparent" points="-4,4 -4,-280 661,-280 661,4 -4,4"/>
<text text-anchor="start" x="307.5091" y="-42.4" font-family="sans-serif" font-weight="bold" font-size="14.00" fill="#000000">Legend</text>
<polygon fill="#ffffb3" stroke="transparent" points="94.5,-10 94.5,-30 114.5,-30 114.5,-10 94.5,-10"/>
<text text-anchor="start" x="118.129" y="-15.4" font-family="sans-serif" font-size="14.00" fill="#000000"> &#160;Declarations</text>
<polygon fill="#8dd3c7" stroke="transparent" points="207.5,-10 207.5,-30 227.5,-30 227.5,-10 207.5,-10"/>
<text text-anchor="start" x="231.2251" y="-15.4" font-family="sans-serif" font-size="14.00" fill="#000000"> &#160;Module</text>
<polygon fill="#80b1d3" stroke="transparent" points="293.5,-10 293.5,-30 313.5,-30 313.5,-10 293.5,-10"/>
<text text-anchor="start" x="317.2812" y="-15.4" font-family="sans-serif" font-size="14.00" fill="#000000"> &#160;Bootstrap</text>
<polygon fill="#fdb462" stroke="transparent" points="390.5,-10 390.5,-30 410.5,-30 410.5,-10 390.5,-10"/>
<text text-anchor="start" x="414.1732" y="-15.4" font-family="sans-serif" font-size="14.00" fill="#000000"> &#160;Providers</text>
<polygon fill="#fb8072" stroke="transparent" points="486.5,-10 486.5,-30 506.5,-30 506.5,-10 486.5,-10"/>
<text text-anchor="start" x="510.2258" y="-15.4" font-family="sans-serif" font-size="14.00" fill="#000000"> &#160;Exports</text>
<g id="clust1" class="cluster">
<title>cluster_IconsModule</title>
<polygon fill="none" stroke="#000000" stroke-dasharray="1,5" points="8,-70 8,-268 649,-268 649,-70 8,-70"/>
</g>
<g id="clust2" class="cluster">
<title>cluster_IconsModule_declarations</title>
<polygon fill="none" stroke="#000000" points="25,-78 25,-130 635,-130 635,-78 25,-78"/>
</g>
<g id="clust8" class="cluster">
<title>cluster_IconsModule_exports</title>
<polygon fill="none" stroke="#000000" points="16,-208 16,-260 641,-260 641,-208 16,-208"/>
</g>
<!-- IconCloseComponent -->
<g id="node1" class="node">
<title>IconCloseComponent</title>
<polygon fill="#ffffb3" stroke="#000000" points="627.094,-122 488.906,-122 488.906,-86 627.094,-86 627.094,-122"/>
<text text-anchor="middle" x="558" y="-99.8" font-family="Times,serif" font-size="14.00" fill="#000000">IconCloseComponent</text>
</g>
<!-- IconsModule -->
<g id="node5" class="node">
<title>IconsModule</title>
<polygon fill="#8dd3c7" stroke="#000000" points="292.8697,-187 289.8697,-191 268.8697,-191 265.8697,-187 203.1303,-187 203.1303,-151 292.8697,-151 292.8697,-187"/>
<text text-anchor="middle" x="248" y="-164.8" font-family="Times,serif" font-size="14.00" fill="#000000">IconsModule</text>
</g>
<!-- IconCloseComponent&#45;&gt;IconsModule -->
<g id="edge1" class="edge">
<title>IconCloseComponent&#45;&gt;IconsModule</title>
<path fill="none" stroke="#000000" d="M581.7657,-122.2667C581.7657,-140.5552 581.7657,-166 581.7657,-166 581.7657,-166 303.0131,-166 303.0131,-166"/>
<polygon fill="#000000" stroke="#000000" points="303.0132,-162.5001 293.0131,-166 303.0131,-169.5001 303.0132,-162.5001"/>
</g>
<!-- IconDeleteComponent -->
<g id="node2" class="node">
<title>IconDeleteComponent</title>
<polygon fill="#ffffb3" stroke="#000000" points="471.2394,-122 328.7606,-122 328.7606,-86 471.2394,-86 471.2394,-122"/>
<text text-anchor="middle" x="400" y="-99.8" font-family="Times,serif" font-size="14.00" fill="#000000">IconDeleteComponent</text>
</g>
<!-- IconDeleteComponent&#45;&gt;IconsModule -->
<g id="edge2" class="edge">
<title>IconDeleteComponent&#45;&gt;IconsModule</title>
<path fill="none" stroke="#000000" d="M423.7899,-122.0091C423.7899,-138.0494 423.7899,-159 423.7899,-159 423.7899,-159 303.2703,-159 303.2703,-159"/>
<polygon fill="#000000" stroke="#000000" points="303.2703,-155.5001 293.2703,-159 303.2702,-162.5001 303.2703,-155.5001"/>
</g>
<!-- IconEditComponent -->
<g id="node3" class="node">
<title>IconEditComponent</title>
<polygon fill="#ffffb3" stroke="#000000" points="310.5422,-122 181.4578,-122 181.4578,-86 310.5422,-86 310.5422,-122"/>
<text text-anchor="middle" x="246" y="-99.8" font-family="Times,serif" font-size="14.00" fill="#000000">IconEditComponent</text>
</g>
<!-- IconEditComponent&#45;&gt;IconsModule -->
<g id="edge3" class="edge">
<title>IconEditComponent&#45;&gt;IconsModule</title>
<path fill="none" stroke="#000000" d="M248,-122.1061C248,-122.1061 248,-140.991 248,-140.991"/>
<polygon fill="#000000" stroke="#000000" points="244.5001,-140.9909 248,-150.991 251.5001,-140.991 244.5001,-140.9909"/>
</g>
<!-- IconNavComponent -->
<g id="node4" class="node">
<title>IconNavComponent</title>
<polygon fill="#ffffb3" stroke="#000000" points="162.5297,-122 33.4703,-122 33.4703,-86 162.5297,-86 162.5297,-122"/>
<text text-anchor="middle" x="98" y="-99.8" font-family="Times,serif" font-size="14.00" fill="#000000">IconNavComponent</text>
</g>
<!-- IconNavComponent&#45;&gt;IconsModule -->
<g id="edge4" class="edge">
<title>IconNavComponent&#45;&gt;IconsModule</title>
<path fill="none" stroke="#000000" d="M116.0881,-122.0225C116.0881,-139.3734 116.0881,-163 116.0881,-163 116.0881,-163 192.9724,-163 192.9724,-163"/>
<polygon fill="#000000" stroke="#000000" points="192.9724,-166.5001 202.9724,-163 192.9723,-159.5001 192.9724,-166.5001"/>
</g>
<!-- IconCloseComponent  -->
<g id="node6" class="node">
<title>IconCloseComponent </title>
<polygon fill="#fb8072" stroke="#000000" points="632.5946,-252 491.4054,-252 491.4054,-216 632.5946,-216 632.5946,-252"/>
<text text-anchor="middle" x="562" y="-229.8" font-family="Times,serif" font-size="14.00" fill="#000000">IconCloseComponent </text>
</g>
<!-- IconsModule&#45;&gt;IconCloseComponent  -->
<g id="edge5" class="edge">
<title>IconsModule&#45;&gt;IconCloseComponent </title>
<path fill="none" stroke="#000000" stroke-dasharray="5,2" d="M293.0757,-173C374.2119,-173 536.4843,-173 536.4843,-173 536.4843,-173 536.4843,-205.698 536.4843,-205.698"/>
<polygon fill="#000000" stroke="#000000" points="532.9844,-205.698 536.4843,-215.698 539.9844,-205.698 532.9844,-205.698"/>
</g>
<!-- IconDeleteComponent  -->
<g id="node7" class="node">
<title>IconDeleteComponent </title>
<polygon fill="#fb8072" stroke="#000000" points="473.2394,-252 326.7606,-252 326.7606,-216 473.2394,-216 473.2394,-252"/>
<text text-anchor="middle" x="400" y="-229.8" font-family="Times,serif" font-size="14.00" fill="#000000">IconDeleteComponent </text>
</g>
<!-- IconsModule&#45;&gt;IconDeleteComponent  -->
<g id="edge6" class="edge">
<title>IconsModule&#45;&gt;IconDeleteComponent </title>
<path fill="none" stroke="#000000" stroke-dasharray="5,2" d="M293.2021,-180C330.1146,-180 376.2101,-180 376.2101,-180 376.2101,-180 376.2101,-205.7181 376.2101,-205.7181"/>
<polygon fill="#000000" stroke="#000000" points="372.7102,-205.718 376.2101,-215.7181 379.7102,-205.7181 372.7102,-205.718"/>
</g>
<!-- IconEditComponent  -->
<g id="node8" class="node">
<title>IconEditComponent </title>
<polygon fill="#fb8072" stroke="#000000" points="308.5414,-252 175.4586,-252 175.4586,-216 308.5414,-216 308.5414,-252"/>
<text text-anchor="middle" x="242" y="-229.8" font-family="Times,serif" font-size="14.00" fill="#000000">IconEditComponent </text>
</g>
<!-- IconsModule&#45;&gt;IconEditComponent  -->
<g id="edge7" class="edge">
<title>IconsModule&#45;&gt;IconEditComponent </title>
<path fill="none" stroke="#000000" stroke-dasharray="5,2" d="M248,-187.1061C248,-187.1061 248,-205.991 248,-205.991"/>
<polygon fill="#000000" stroke="#000000" points="244.5001,-205.9909 248,-215.991 251.5001,-205.991 244.5001,-205.9909"/>
</g>
<!-- IconNavComponent  -->
<g id="node9" class="node">
<title>IconNavComponent </title>
<polygon fill="#fb8072" stroke="#000000" points="157.5288,-252 24.4712,-252 24.4712,-216 157.5288,-216 157.5288,-252"/>
<text text-anchor="middle" x="91" y="-229.8" font-family="Times,serif" font-size="14.00" fill="#000000">IconNavComponent </text>
</g>
<!-- IconsModule&#45;&gt;IconNavComponent  -->
<g id="edge8" class="edge">
<title>IconsModule&#45;&gt;IconNavComponent </title>
<path fill="none" stroke="#000000" stroke-dasharray="5,2" d="M202.9099,-175C151.5506,-175 74.6619,-175 74.6619,-175 74.6619,-175 74.6619,-205.9775 74.6619,-205.9775"/>
<polygon fill="#000000" stroke="#000000" points="71.1618,-205.9775 74.6619,-215.9775 78.1618,-205.9774 71.1618,-205.9775"/>
</g>
</g>
</svg>
